<svg xmlns="http://www.w3.org/2000/svg" xmlns:xlink="http://www.w3.org/1999/xlink" version="1.1" x="0px" y="0px" viewBox="0 0 512 640" enable-background="new 0 0 512 512" xml:space="preserve"><g><path d="M256,0C139.167,0,44.467,94.708,44.467,211.534C44.467,372.184,256,512,256,512s211.533-139.816,211.533-300.466   C467.533,94.708,372.833,0,256,0z M256,375.941c-90.8,0-164.4-73.6-164.4-164.408c0-90.8,73.601-164.409,164.4-164.409   s164.417,73.608,164.417,164.409C420.417,302.342,346.8,375.941,256,375.941z"/><rect x="178.259" y="127.429" width="19.616" height="186.503"/><path d="M345.083,137.663c-7.008,11.542-19.691,19.258-34.191,19.258c-14.641,0-27.45-7.879-34.409-19.629   c-6.957-11.746-19.757-19.625-34.407-19.625c-14.649,0-27.45,7.879-34.417,19.625h0.034v97.92   c6.991-11.629,19.733-19.412,34.283-19.412c14.649,0,27.449,7.879,34.416,19.625c6.959,11.75,19.767,19.629,34.408,19.629   s27.451-7.879,34.408-19.629h-0.125V137.663z"/></g><text x="0" y="527" fill="#000000" font-size="5px" font-weight="bold" font-family="'Helvetica Neue', Helvetica, Arial-Unicode, Arial, Sans-serif">Created by lastspark</text><text x="0" y="532" fill="#000000" font-size="5px" font-weight="bold" font-family="'Helvetica Neue', Helvetica, Arial-Unicode, Arial, Sans-serif">from the Noun Project</text></svg>